<svg xmlns="http://www.w3.org/2000/svg" width="155" height="43.786" viewBox="0 0 155 43.786"><defs><style>.a{fill:#fff;}.b{fill:#1ca7dc;}</style></defs><g transform="translate(-320 -26)"><g transform="translate(278.634 -2495.164)"><path class="a" d="M827.265,2692.7a11.374,11.374,0,1,1-11.3,11.374A10.966,10.966,0,0,1,827.265,2692.7Zm0,4.154c-4,0-6.561,3.1-6.561,7.22,0,4.088,2.566,7.22,6.561,7.22s6.594-3.132,6.594-7.22C833.858,2699.955,831.26,2696.856,827.265,2696.856Z" transform="translate(-727.661 -160.538)"/><path class="a" d="M1243.214,2698.6h10.134c4.71,0,7.276,3.231,7.276,7.088,0,3.824-2.6,7.022-7.276,7.022h-5.522v7.879h-4.612Zm9.517,4.022h-4.9v6.066h4.9a3.037,3.037,0,1,0,0-6.066Z" transform="translate(-1129.026 -166.073)"/><path class="a" d="M1577.723,2698.6h8.543c6.789,0,11.5,4.385,11.5,11.011s-4.71,10.978-11.5,10.978h-8.543Zm8.543,17.868a6.536,6.536,0,0,0,6.789-6.857c0-3.89-2.339-6.89-6.789-6.89h-3.93v13.747Z" transform="translate(-1443.267 -166.073)"/><path class="a" d="M1962.619,2698.6h15.331v4.022h-10.719v4.78h10.492v4.022h-10.492v5.11h10.719v4.055h-15.331Z" transform="translate(-1804.841 -166.073)"/><path class="a" d="M2249.105,2712.545l-5.457,8.044h-5.489l7.861-11.275-7.374-10.714h5.49l4.969,7.516,4.9-7.516h5.554l-7.373,10.681,7.861,11.307h-5.522Z" transform="translate(-2063.686 -166.073)"/></g><g transform="translate(2396 -3108.283)"><path class="b" d="M-2034.3,3138.993v6.29l-8.424,4.864-9.665-5.582-.259-.149,0,0-.256.147-9.675,5.58-8.166-4.714,17.841-10.285.256-.148.007-.006.256.148,9.926,5.736v-6.589Z" transform="translate(-5.003)"/><path class="b" d="M-1663.111,3380.383v20.9l-.248.143-17.841,10.285v-9.419l9.675-5.58.251-.145V3385.1Z" transform="translate(-376.193 -234.501)"/><path class="b" d="M-1787.953,3466.491l-5.009,2.892-.259.15-.259-.15-5.01-2.892,5.01-2.891.256-.147,0,0,.259.149Z" transform="translate(-264.431 -313.656)"/><path class="b" d="M-1798.674,3540.5v6.078l-5.009-2.887-.257-.148v-6.084l5.007,2.891Z" transform="translate(-259.238 -384.177)"/><path class="b" d="M-1675.934,3537.463v6.084l-.257.148-5.01,2.89V3540.5l.259-.149Z" transform="translate(-376.193 -384.177)"/><path class="b" d="M-2057.911,3402.3v9.43l-9.926-5.736v6.589l-8.163-4.71v-27.477l8.163,4.713v11.459h0l.259.149Z" transform="translate(0 -234.511)"/></g></g></svg>